<svg width="240" height="66" viewBox="0 0 240 66" fill="none" xmlns="http://www.w3.org/2000/svg">
<path d="M32.375 66C32.1343 66 31.9281 65.9307 31.6875 65.8268L31.6531 65.7922L17.6625 56.996C16.5969 56.3726 15.9094 55.1952 15.9094 53.9138L15.6 49.0309C5.80311 43.4207 4.11874 38.1915 3.84374 36.737C3.77499 36.3214 3.87811 35.8712 4.15311 35.5595C4.42811 35.2478 4.84061 35.0747 5.25311 35.1093C5.73436 35.144 6.76561 35.0401 7.59061 34.6245C3.49999 31.3346 2.05624 25.3434 1.88437 23.3695C1.84999 22.85 2.09062 22.3306 2.53749 22.0535C2.98436 21.7765 3.53436 21.7765 3.98124 22.0535L14.9469 28.9104C15.9781 29.5338 16.5969 30.7112 16.5969 31.9579L17.9718 53.8792C17.9718 54.4333 18.2468 54.9528 18.6937 55.1952L18.7281 55.2298L31.6875 63.3681V20.7722C31.6875 20.2181 31.4125 19.6986 30.9656 19.4562L0.509368 1.93302C0.0281183 1.65597 -0.143757 1.03262 0.131243 0.513159C0.406243 0.0283275 1.02499 -0.144826 1.54062 0.13222L31.9968 17.6208C33.0968 18.2441 33.7843 19.4562 33.7843 20.7375V64.5801C33.7843 65.065 33.5093 65.5498 33.0968 65.7922C32.8562 65.9307 32.6156 66 32.375 66ZM6.11249 37.1179C6.73124 38.7802 8.75936 42.4164 15.4625 46.5029L14.5344 31.9579C14.5344 31.4385 14.2594 30.919 13.8469 30.642L4.18749 24.6508C4.80624 27.3174 6.45624 31.4038 9.54998 33.447C9.89373 33.6895 10.1344 34.0704 10.1687 34.486C10.2031 34.9362 10.0312 35.3864 9.72186 35.698C8.69061 36.6331 7.21249 37.014 6.11249 37.1179Z" fill="url(#paint0_linear)"/>
<path d="M25.7845 47.8643C25.5438 47.8643 25.3032 47.795 25.097 47.6912L25.0626 47.6565L21.7626 45.544C20.697 44.9207 20.0438 43.7086 20.0438 42.4273L19.3563 20.2636C19.3563 19.6748 19.0813 19.19 18.6345 18.913L2.13449 9.21634C1.13761 8.62761 0.484489 7.58869 0.415739 6.41124L0.00323962 1.5283C-0.0311353 1.00884 0.209489 0.489376 0.656364 0.21233C1.06886 -0.0647164 1.61886 -0.0647159 2.06574 0.1777L25.0626 13.4413C26.1626 14.0647 26.8501 15.2767 26.8501 16.5581L27.1938 46.4098C27.1938 46.9293 26.9188 47.3795 26.5063 47.6565C26.2657 47.7951 26.0251 47.8643 25.7845 47.8643ZM2.16886 2.63649L2.47824 6.23809C2.51261 6.75755 2.78761 7.17312 3.20011 7.41554L19.7001 17.1468C20.7657 17.7701 21.4532 18.9822 21.4532 20.2636L22.1407 42.4273C22.1407 43.016 22.4157 43.5355 22.8626 43.7779L22.897 43.8125L25.1313 45.2324L24.7876 16.6273C24.7876 16.0732 24.5126 15.5538 24.0657 15.2767L2.16886 2.63649Z" transform="translate(0.953125 7.85034)" fill="url(#paint1_linear)"/>
<path d="M1.375 65.9654C1.13437 65.9654 0.893749 65.8961 0.687499 65.7922C0.275 65.5498 0 65.065 0 64.5801V20.7375C0 19.4216 0.687498 18.2441 1.7875 17.6208L32.2437 0.13222C32.725 -0.144827 33.3781 0.0283275 33.6531 0.513159C33.9281 0.99799 33.7562 1.65598 33.275 1.93302L2.81875 19.4216C2.37187 19.6986 2.09687 20.1835 2.09687 20.7375V63.3334L15.0562 55.1606C15.5031 54.8835 15.7781 54.3987 15.7781 53.8446V53.7753L17.1531 31.9233C17.1531 30.6766 17.8062 29.5338 18.8031 28.8758L29.7687 22.0189C30.2156 21.7418 30.7656 21.7418 31.2125 22.0189C31.6593 22.2959 31.9 22.8154 31.8656 23.3349C31.6937 25.2742 30.25 31.2653 26.125 34.5552C26.95 34.9708 27.9812 35.0747 28.4625 35.0401C28.875 35.0054 29.2875 35.1786 29.5625 35.4903C29.8375 35.8019 29.975 36.2521 29.8718 36.6677C29.5968 38.1222 27.9125 43.3515 18.1156 48.9617L17.8062 53.8446C17.8062 55.1259 17.1187 56.3034 16.0531 56.9267L2.02812 65.7576C1.82187 65.8961 1.61562 65.9654 1.375 65.9654ZM29.5968 24.6162L19.9031 30.6766C19.4906 30.9536 19.2156 31.4385 19.2156 31.9926V32.0618L18.3219 46.5375C25.025 42.4164 27.0531 38.7802 27.6718 37.1525C26.5718 37.0487 25.1281 36.6677 24.0969 35.6981C23.7531 35.3864 23.5812 34.9362 23.65 34.486C23.6844 34.0704 23.925 33.6895 24.2687 33.447C27.3281 31.3692 28.9781 27.2481 29.5968 24.6162Z" transform="translate(37.6338 0.0346222)" fill="url(#paint2_linear)"/>
<path d="M1.375 47.8643C1.13437 47.8643 0.893749 47.795 0.6875 47.6912C0.275 47.4487 5.2452e-07 46.9639 5.2452e-07 46.4791L0.34375 16.5927C0.34375 15.3114 1.03125 14.0993 2.13125 13.4759L25.1281 0.1777C25.575 -0.0647159 26.0906 -0.0647164 26.5375 0.21233C26.9843 0.489376 27.225 1.00884 27.1906 1.5283L26.7781 6.41124C26.675 7.58869 26.0218 8.62761 25.0593 9.21634L8.55937 18.9476C8.11249 19.2246 7.83749 19.7095 7.83749 20.2636L7.14999 42.4965C7.14999 43.7432 6.49687 44.9553 5.43124 45.5787L2.09687 47.7258C1.85625 47.7951 1.61562 47.8643 1.375 47.8643ZM24.9906 2.63649L3.12812 15.2421C2.68125 15.5191 2.40625 16.004 2.40625 16.5581L2.0625 45.1631L4.33125 43.7086C4.77812 43.4316 5.05312 42.9467 5.05312 42.3927L5.74062 20.1597C5.74062 18.913 6.39374 17.7009 7.49374 17.0775L23.9937 7.34628C24.4062 7.10386 24.6812 6.65366 24.7156 6.16883L24.9906 2.63649Z" transform="translate(43.2715 7.85034)" fill="url(#paint3_linear)"/>
<path d="M-2.09808e-06 12.8827V0.657985C-2.09808e-06 0.4502 0.103129 0.277046 0.275004 0.173153C0.481254 0.0692611 0.687503 -5.28424e-07 0.962503 -5.28424e-07C1.2375 -5.28424e-07 1.44375 0.0692611 1.65 0.173153C1.85625 0.277046 1.925 0.4502 1.925 0.657985V12.8827C1.925 13.0904 1.82188 13.229 1.65 13.3675C1.44375 13.4714 1.2375 13.5406 0.962503 13.5406C0.721878 13.5406 0.481254 13.4714 0.275004 13.3675C0.103129 13.229 -2.09808e-06 13.0904 -2.09808e-06 12.8827Z" transform="translate(99.1318 17.69)" fill="#4EC0F2"/>
<path d="M-2.09808e-06 12.8827V0.657985C-2.09808e-06 0.4502 0.103129 0.277046 0.275004 0.173153C0.481254 0.0692611 0.687503 -5.28424e-07 0.962503 -5.28424e-07C1.2375 -5.28424e-07 1.44375 0.0692611 1.65 0.173153C1.85625 0.277046 1.925 0.4502 1.925 0.657985V12.8827C1.925 13.0904 1.82188 13.229 1.65 13.3675C1.44375 13.4714 1.2375 13.5406 0.962503 13.5406C0.721878 13.5406 0.481254 13.4714 0.275004 13.3675C0.103129 13.229 -2.09808e-06 13.0904 -2.09808e-06 12.8827Z" transform="translate(93.9756 17.69)" fill="#4EC0F2"/>
<path d="M0 12.8827V0.657985C0 0.242416 0.30937 -5.28424e-07 0.962495 -5.28424e-07C1.30624 -5.28424e-07 1.58125 0.0692613 1.7875 0.242415C1.99375 0.380939 2.2 0.692616 2.44062 1.10819L6.49687 9.1079V0.657985C6.49687 0.4502 6.6 0.277046 6.77187 0.173153C6.97812 0.0692611 7.18437 -5.28424e-07 7.45937 -5.28424e-07C7.73437 -5.28424e-07 7.94062 0.0692611 8.14687 0.173153C8.35312 0.277046 8.42187 0.4502 8.42187 0.657985V12.8827C8.42187 13.0904 8.31874 13.229 8.14687 13.3675C7.94062 13.4714 7.73437 13.5406 7.45937 13.5406C6.94375 13.5406 6.56561 13.2982 6.29061 12.8134L1.89062 4.39811V12.8827C1.89062 13.0904 1.7875 13.229 1.61563 13.3675C1.40938 13.4714 1.20313 13.5406 0.928128 13.5406C0.687503 13.5406 0.446879 13.4714 0.240629 13.3675C0.103129 13.229 0 13.0904 0 12.8827Z" transform="translate(110.854 17.69)" fill="#4EC0F2"/>
<path d="M0 11.4282C0 11.1858 0.0687541 10.9433 0.240629 10.7355C0.412504 10.5278 0.618747 10.3892 0.824997 10.3892C0.962497 10.3892 1.13437 10.4585 1.30624 10.6317C1.51249 10.8048 1.68437 10.9433 1.85625 11.1511C2.02812 11.3243 2.30312 11.4974 2.68124 11.6706C3.05937 11.8437 3.47187 11.913 3.95312 11.913C4.64062 11.913 5.22499 11.7398 5.63749 11.4282C6.04999 11.0819 6.25625 10.597 6.25625 9.97367C6.25625 9.38495 6.04999 8.90012 5.63749 8.48455C5.22499 8.10361 4.74375 7.7573 4.15937 7.54951C3.575 7.3071 2.99062 7.06468 2.40625 6.78764C1.82187 6.51059 1.30625 6.09502 0.928128 5.57556C0.515629 5.02147 0.309373 4.36348 0.309373 3.53234C0.309373 2.87436 0.446875 2.32026 0.687499 1.83543C0.928124 1.3506 1.27187 1.00429 1.71875 0.727247C2.13125 0.484832 2.6125 0.277046 3.05937 0.173154C3.54062 0.0692613 4.02187 -2.64212e-07 4.5375 -2.64212e-07C4.88125 -2.64212e-07 5.225 0.0346308 5.56875 0.0692616C5.9125 0.103892 6.29061 0.173153 6.63436 0.277046C6.97811 0.380938 7.28749 0.519462 7.52812 0.692616C7.76874 0.86577 7.87186 1.07355 7.87186 1.31597C7.87186 1.55839 7.80311 1.76617 7.66561 2.00859C7.52811 2.251 7.32187 2.35489 7.08124 2.35489C6.94375 2.35489 6.80625 2.28563 6.6 2.18174C6.39375 2.07785 6.11874 1.93932 5.77499 1.83543C5.43124 1.73154 5.01874 1.66228 4.57187 1.66228C3.88437 1.66228 3.33437 1.8008 2.8875 2.07785C2.475 2.35489 2.26875 2.77046 2.26875 3.35919C2.26875 3.74013 2.37187 4.0518 2.6125 4.32885C2.81875 4.6059 3.12812 4.81368 3.47187 4.98683C3.81562 5.15999 4.19375 5.33314 4.64062 5.5063C5.05312 5.67945 5.5 5.85261 5.9125 6.09502C6.325 6.30281 6.70312 6.57985 7.08124 6.8569C7.42499 7.13394 7.69999 7.54951 7.94062 8.06898C8.14687 8.58844 8.28437 9.17716 8.28437 9.83515C8.28437 11.1165 7.90624 12.0861 7.14999 12.7441C6.39374 13.4021 5.36249 13.7484 4.125 13.7484C2.99062 13.7484 2.02813 13.506 1.2375 13.0212C0.378127 12.4325 0 11.913 0 11.4282Z" transform="translate(128.385 17.7593)" fill="#4EC0F2"/>
<path d="M2.09808e-06 12.848V0.623354C2.09808e-06 0.4502 0.0687541 0.311677 0.206254 0.173154C0.343754 0.0346311 0.51562 2.64212e-07 0.756245 2.64212e-07H4.33125C5.56875 2.64212e-07 6.53125 0.311677 7.25312 0.969662C7.975 1.62765 8.35311 2.66657 8.35311 4.0518V4.19033C8.35311 5.61019 7.97499 6.61448 7.21874 7.27247C6.4625 7.93045 5.46562 8.27676 4.22812 8.27676H1.95937V12.848C1.95937 13.0558 1.85625 13.1943 1.68437 13.3329C1.47812 13.4367 1.27187 13.506 0.996874 13.506C0.756249 13.506 0.515624 13.4367 0.309375 13.3329C0.103125 13.1943 2.09808e-06 13.0558 2.09808e-06 12.848ZM1.95937 6.71837H4.22812C4.91562 6.71837 5.46562 6.51059 5.84375 6.12965C6.22187 5.71408 6.42811 5.12536 6.42811 4.32885V4.08643C6.42811 3.28993 6.22187 2.7012 5.84375 2.28563C5.46562 1.90469 4.91562 1.69691 4.22812 1.69691H1.95937V6.71837Z" transform="translate(145.778 17.7247)" fill="#4EC0F2"/>
<path d="M2.09808e-06 12.8827V0.657985C2.09808e-06 0.4502 0.0687457 0.311677 0.240621 0.173153C0.412495 0.0692611 0.618751 -5.28424e-07 0.859376 -5.28424e-07H7.39062C7.59687 -5.28424e-07 7.76874 0.103892 7.87187 0.242415C7.97499 0.415569 8.04374 0.623354 8.04374 0.831139C8.04374 1.07355 7.97499 1.28134 7.87187 1.45449C7.76874 1.62765 7.59687 1.69691 7.39062 1.69691H1.95937V5.92187H4.77812C4.98437 5.92187 5.12187 5.99113 5.25937 6.16428C5.36249 6.30281 5.43124 6.51059 5.43124 6.71837C5.43124 6.92616 5.36249 7.09931 5.25937 7.23784C5.15624 7.37636 4.98437 7.48025 4.77812 7.48025H1.95937V11.7398H7.39062C7.59687 11.7398 7.73437 11.8091 7.87187 11.9823C8.00937 12.1554 8.04374 12.3632 8.04374 12.6056C8.04374 12.8134 7.97499 13.0212 7.87187 13.1943C7.76874 13.3675 7.59687 13.4368 7.39062 13.4368H0.859376C0.618751 13.4368 0.412495 13.3675 0.240621 13.2636C0.0687457 13.229 2.09808e-06 13.0904 2.09808e-06 12.8827Z" transform="translate(163.138 17.69)" fill="#4EC0F2"/>
<path d="M0 9.52347V4.12107C0 2.7012 0.37812 1.66228 1.13437 1.00429C1.89062 0.346308 2.85313 -5.28424e-07 4.09063 -5.28424e-07C5.32813 -5.28424e-07 6.35937 0.311677 7.11562 0.935031C7.87187 1.55839 8.24999 2.35489 8.24999 3.35919C8.24999 3.74013 8.18125 4.01717 8.04375 4.1557C7.90625 4.29422 7.63125 4.36348 7.2875 4.36348C6.66875 4.36348 6.325 4.1557 6.325 3.7055C6.25625 2.38952 5.53437 1.73154 4.19375 1.73154C2.71563 1.73154 1.99374 2.52805 1.99374 4.12107V9.48884C1.99374 11.0819 2.74999 11.8784 4.22812 11.8784C4.67499 11.8784 5.01874 11.8091 5.32812 11.6706C5.63749 11.5321 5.84374 11.3589 5.94686 11.1165C6.08436 10.8741 6.15311 10.6663 6.22186 10.4585C6.25624 10.2853 6.29063 10.0429 6.325 9.76589C6.35938 9.35032 6.66875 9.1079 7.2875 9.1079C7.63125 9.1079 7.90625 9.17716 8.04375 9.31569C8.18125 9.45421 8.28436 9.73126 8.28436 10.1122C8.28436 11.1511 7.90625 11.9823 7.11562 12.6056C6.35937 13.2636 5.32813 13.5753 4.09063 13.5753C2.88751 13.5753 1.89063 13.229 1.16876 12.571C0.446883 11.913 0 10.9433 0 9.52347Z" transform="translate(179.774 17.69)" fill="#4EC0F2"/>
<path d="M-4.19616e-06 0.900401C-4.19616e-06 0.657985 0.0687457 0.450201 0.171871 0.277047C0.274996 0.103893 0.446879 -5.28424e-07 0.653129 -5.28424e-07H8.24999C8.45624 -5.28424e-07 8.62812 0.103893 8.73125 0.277047C8.83437 0.450201 8.90312 0.657985 8.90312 0.900401C8.90312 1.17745 8.83437 1.38523 8.73125 1.55839C8.62812 1.73154 8.45624 1.83543 8.24999 1.83543H5.43124V12.8827C5.43124 13.0904 5.32812 13.229 5.12187 13.3675C4.91562 13.4714 4.70937 13.5406 4.43437 13.5406C4.15937 13.5406 3.91875 13.4714 3.74688 13.3675C3.54063 13.2636 3.47188 13.0904 3.47188 12.8827V1.83543H0.618741C0.412491 1.83543 0.275004 1.73154 0.137504 1.55839C0.0343792 1.38523 -4.19616e-06 1.14282 -4.19616e-06 0.900401Z" transform="translate(196.206 17.69)" fill="#4EC0F2"/>
<path d="M8.39233e-06 9.52347V4.12106C8.39233e-06 2.7012 0.378129 1.66228 1.13438 1.00429C1.89063 0.346308 2.88751 -5.28424e-07 4.125 -5.28424e-07C5.3625 -5.28424e-07 6.35936 0.346308 7.11561 1.00429C7.87186 1.66228 8.25 2.7012 8.25 4.12106V9.48884C8.25 10.9087 7.87186 11.9476 7.11561 12.6056C6.35936 13.2636 5.3625 13.6099 4.125 13.6099C2.88751 13.6099 1.89063 13.2636 1.13438 12.6056C0.378129 11.9476 8.39233e-06 10.9433 8.39233e-06 9.52347ZM1.925 9.52347C1.925 11.1165 2.64687 11.913 4.09062 11.913C4.77812 11.913 5.32812 11.7052 5.70624 11.3243C6.08437 10.9433 6.29062 10.32 6.29062 9.52347V4.12106C6.29062 3.32456 6.08437 2.73583 5.70624 2.32026C5.32812 1.93932 4.77812 1.73154 4.09062 1.73154C2.64687 1.73154 1.925 2.52805 1.925 4.12106V9.52347Z" transform="translate(213.772 17.69)" fill="#4EC0F2"/>
<path d="M-4.19616e-06 12.848V0.623354C-4.19616e-06 0.4502 0.0687457 0.311677 0.171871 0.173154C0.30937 0.0346311 0.446866 2.64212e-07 0.618741 2.64212e-07H4.09062C6.90937 2.64212e-07 8.31874 1.24671 8.31874 3.77476C8.31874 4.81368 8.07812 5.64482 7.63124 6.23354C7.14999 6.82227 6.53124 7.23784 5.74062 7.41099L8.31874 12.2939C8.35312 12.3978 8.3875 12.4671 8.3875 12.571C8.3875 12.8134 8.24998 13.0558 8.00936 13.2636C7.76873 13.4714 7.49374 13.5753 7.21874 13.5753C6.90936 13.5753 6.63436 13.3675 6.46248 12.9865L3.78124 7.68804H1.92501V12.848C1.92501 13.0558 1.82186 13.1943 1.64999 13.3329C1.44374 13.4367 1.23749 13.506 0.96249 13.506C0.721866 13.506 0.481254 13.4367 0.309379 13.3329C0.103129 13.1943 -4.19616e-06 13.0558 -4.19616e-06 12.848ZM1.92501 6.12965H4.12499C5.63749 6.12965 6.39375 5.4024 6.39375 3.91328C6.39375 2.45879 5.63749 1.73154 4.12499 1.73154H1.92501V6.12965Z" transform="translate(231.612 17.7247)" fill="#4EC0F2"/>
<path d="M4.19616e-06 9.48884V4.12106C4.19616e-06 2.7012 0.378125 1.66228 1.13437 1.00429C1.89062 0.346307 2.85312 -1.05685e-06 4.05625 -1.05685e-06C5.29374 -1.05685e-06 6.29061 0.311678 7.08124 0.935032C7.87186 1.55839 8.25 2.38952 8.25 3.42845C8.25 3.77476 8.18124 4.01717 8.00937 4.15569C7.87187 4.29422 7.59686 4.36348 7.25311 4.36348C6.59999 4.36348 6.29062 4.1557 6.29062 3.7055C6.15312 2.38953 5.43125 1.73154 4.125 1.73154C2.68125 1.73154 1.95937 2.52805 1.95937 4.12106V9.48884C1.95937 11.0819 2.68125 11.8784 4.125 11.8784C4.8125 11.8784 5.36249 11.6706 5.74062 11.2896C6.11874 10.9087 6.325 10.2853 6.325 9.48884V7.96508H4.46875C4.2625 7.96508 4.12499 7.89582 4.02187 7.72267C3.91874 7.54951 3.84999 7.37636 3.84999 7.16857C3.84999 6.96079 3.91874 6.78763 4.02187 6.64911C4.12499 6.51059 4.29688 6.4067 4.46875 6.4067H7.63124C7.83749 6.4067 7.97499 6.47596 8.11249 6.61448C8.21561 6.75301 8.28436 6.89153 8.28436 7.09931V9.52347C8.28436 10.9433 7.90624 11.9823 7.14999 12.6402C6.39374 13.2982 5.39687 13.6445 4.15937 13.6445C2.92187 13.6445 1.925 13.2982 1.16875 12.6402C0.378127 11.9476 4.19616e-06 10.9087 4.19616e-06 9.48884Z" transform="translate(93.5625 39.8884)" fill="#4EC0F2"/>
<path d="M-2.09808e-06 12.8134C-2.09808e-06 12.7441 0 12.6749 0.034375 12.6402L3.67812 0.657984C3.85 0.207784 4.26249 1.05685e-06 4.98437 1.05685e-06C5.70624 1.05685e-06 6.15311 0.207784 6.32499 0.623354L9.96874 12.6056C10.0031 12.6749 10.0031 12.7441 10.0031 12.7788C10.0031 13.0212 9.86561 13.1943 9.59061 13.3675C9.31561 13.5406 9.00624 13.6099 8.69687 13.6099C8.31874 13.6099 8.07812 13.4714 7.97499 13.1943L7.21874 10.5624H2.71562L1.95937 13.1943C1.89062 13.4714 1.65 13.6099 1.27188 13.6099C0.962501 13.6099 0.687503 13.5406 0.446879 13.3675C0.137504 13.229 -2.09808e-06 13.0558 -2.09808e-06 12.8134ZM3.09374 9.03864H6.73749L4.91562 2.7012L3.09374 9.03864Z" transform="translate(110.476 39.7499)" fill="#4EC0F2"/>
<path d="M4.19616e-06 12.8827V0.623354C4.19616e-06 0.4502 0.0687478 0.311676 0.240623 0.173153C0.412498 0.0346297 0.618754 -1.05685e-06 0.859378 -1.05685e-06H4.09062C5.32812 -1.05685e-06 6.32499 0.346307 7.08124 1.00429C7.83749 1.66228 8.21562 2.7012 8.21562 4.12106V9.38495C8.21562 10.8048 7.83749 11.8437 7.08124 12.5017C6.32499 13.1597 5.32812 13.506 4.09062 13.506H0.859378C0.618754 13.506 0.412498 13.4367 0.240623 13.3329C0.0687478 13.229 4.19616e-06 13.0558 4.19616e-06 12.8827ZM1.92499 11.7745H4.09062C5.53437 11.7745 6.25624 10.978 6.25624 9.38495V4.12106C6.25624 2.52805 5.53437 1.73154 4.09062 1.73154H1.92499V11.7745Z" transform="translate(128.797 39.8884)" fill="#4EC0F2"/>
<path d="M2.09808e-06 9.48884V4.12106C2.09808e-06 2.7012 0.378123 1.66228 1.13437 1.00429C1.89062 0.346307 2.85312 -1.05685e-06 4.05624 -1.05685e-06C5.29374 -1.05685e-06 6.29062 0.311678 7.08125 0.935032C7.87187 1.55839 8.24999 2.38952 8.24999 3.42845C8.24999 3.77476 8.18124 4.01717 8.00936 4.15569C7.87186 4.29422 7.59687 4.36348 7.25312 4.36348C6.63437 4.36348 6.29062 4.1557 6.29062 3.7055C6.15312 2.38953 5.43125 1.73154 4.125 1.73154C2.68125 1.73154 1.95937 2.52805 1.95937 4.12106V9.48884C1.95937 11.0819 2.68125 11.8784 4.125 11.8784C4.8125 11.8784 5.36249 11.6706 5.74061 11.2896C6.11874 10.9087 6.32499 10.2853 6.32499 9.48884V7.96508H4.43437C4.22812 7.96508 4.09062 7.89582 3.9875 7.72267C3.88438 7.54951 3.81563 7.37636 3.81563 7.16857C3.81563 6.96079 3.88438 6.78763 3.9875 6.64911C4.09062 6.51059 4.2625 6.4067 4.43437 6.4067H7.59687C7.80312 6.4067 7.94062 6.47596 8.07812 6.61448C8.18124 6.75301 8.24999 6.89153 8.24999 7.09931V9.52347C8.24999 10.9433 7.87186 11.9823 7.11561 12.6402C6.35936 13.2982 5.3625 13.6445 4.125 13.6445C2.8875 13.6445 1.89062 13.2982 1.13437 12.6402C0.378123 11.9476 2.09808e-06 10.9087 2.09808e-06 9.48884Z" transform="translate(145.778 39.8884)" fill="#4EC0F2"/>
<path d="M2.09808e-06 12.8827V0.657985C2.09808e-06 0.4502 0.0687457 0.311677 0.240621 0.173153C0.412495 0.0346303 0.618751 -5.28424e-07 0.859376 -5.28424e-07H7.39062C7.59687 -5.28424e-07 7.76874 0.103893 7.87187 0.242417C7.97499 0.415571 8.04374 0.623354 8.04374 0.831139C8.04374 1.07355 7.97499 1.28134 7.87187 1.45449C7.76874 1.62765 7.59687 1.69691 7.39062 1.69691H1.95937V5.92187H4.77812C4.98437 5.92187 5.12187 5.99113 5.25937 6.16428C5.36249 6.3028 5.43124 6.51059 5.43124 6.71837C5.43124 6.92616 5.36249 7.09931 5.25937 7.23784C5.15624 7.37636 4.98437 7.48025 4.77812 7.48025H1.95937V11.7398H7.39062C7.59687 11.7398 7.73437 11.8091 7.87187 11.9823C7.97499 12.1554 8.04374 12.3632 8.04374 12.6056C8.04374 12.8134 7.97499 13.0212 7.87187 13.1943C7.76874 13.3675 7.59687 13.4367 7.39062 13.4367H0.859376C0.618751 13.4367 0.412495 13.3675 0.240621 13.2636C0.0687457 13.229 2.09808e-06 13.0904 2.09808e-06 12.8827Z" transform="translate(163.138 39.8538)" fill="#4EC0F2"/>
<path d="M0 0.900402C0 0.657986 0.0687499 0.4502 0.171875 0.277046C0.275 0.103892 0.446883 -1.05685e-06 0.653133 -1.05685e-06H8.24999C8.45624 -1.05685e-06 8.62812 0.103892 8.73125 0.277046C8.83437 0.4502 8.90312 0.657986 8.90312 0.900402C8.90312 1.17745 8.83437 1.38523 8.73125 1.55838C8.62812 1.73154 8.45624 1.83543 8.24999 1.83543H5.43124V12.8827C5.43124 13.0904 5.32813 13.229 5.12188 13.3675C4.91563 13.4714 4.70938 13.5406 4.43438 13.5406C4.15938 13.5406 3.91875 13.4714 3.74688 13.3675C3.54063 13.2636 3.47186 13.0904 3.47186 12.8827V1.83543H0.618745C0.412495 1.83543 0.275008 1.73154 0.137508 1.55838C0.0687583 1.3506 0 1.14282 0 0.900402Z" transform="translate(179.432 39.8884)" fill="#4EC0F2"/>
<path d="M-4.19616e-06 11.4282C-4.19616e-06 11.1858 0.0687499 10.9433 0.240625 10.7355C0.4125 10.4931 0.618754 10.3892 0.825003 10.3892C0.962503 10.3892 1.13437 10.4585 1.30624 10.6317C1.47812 10.8048 1.68438 10.9433 1.85625 11.1511C2.02813 11.3243 2.30311 11.4974 2.68124 11.6706C3.05936 11.8437 3.47187 11.913 3.95312 11.913C4.64062 11.913 5.225 11.7398 5.6375 11.4282C6.05 11.0819 6.25624 10.597 6.25624 9.97367C6.25624 9.38495 6.05 8.90012 5.6375 8.48455C5.225 8.10361 4.74375 7.7573 4.15938 7.54952C3.575 7.3071 2.99062 7.06468 2.40624 6.78764C1.82187 6.51059 1.30625 6.09502 0.928124 5.57556C0.515624 5.02146 0.309379 4.36348 0.309379 3.53234C0.309379 2.87436 0.44687 2.32026 0.687495 1.83543C0.92812 1.3506 1.27187 1.00429 1.71874 0.727247C2.13124 0.484832 2.6125 0.277047 3.05938 0.173155C3.54063 0.0692627 4.02187 1.05685e-06 4.5375 1.05685e-06C4.88125 1.05685e-06 5.22499 0.0346308 5.56874 0.0692616C5.91249 0.103892 6.29061 0.173153 6.63436 0.277046C6.97811 0.380938 7.2875 0.519463 7.52812 0.692617C7.76875 0.865771 7.87187 1.07355 7.87187 1.31597C7.87187 1.55839 7.80311 1.76617 7.66561 2.00859C7.52811 2.251 7.32188 2.35489 7.08125 2.35489C6.94375 2.35489 6.80624 2.28563 6.59999 2.18174C6.39374 2.07785 6.11874 1.93932 5.77499 1.83543C5.43124 1.73154 5.01874 1.66228 4.57186 1.66228C3.88436 1.66228 3.33438 1.8008 2.8875 2.07785C2.475 2.3549 2.26876 2.77046 2.26876 3.35919C2.26876 3.74013 2.37188 4.0518 2.61251 4.32885C2.81876 4.6059 3.12813 4.81368 3.47188 4.98683C3.81563 5.15999 4.19374 5.33314 4.64062 5.5063C5.05312 5.67945 5.49999 5.8526 5.91249 6.09502C6.32499 6.3028 6.70313 6.57985 7.08125 6.8569C7.425 7.13395 7.7 7.54952 7.94063 8.06898C8.14688 8.58844 8.28438 9.17716 8.28438 9.83515C8.28438 11.1165 7.90623 12.0862 7.14998 12.7441C6.39374 13.4021 5.36249 13.7484 4.12499 13.7484C2.99062 13.7484 2.02813 13.506 1.23751 13.0212C0.378133 12.4325 -4.19616e-06 11.9476 -4.19616e-06 11.4282Z" transform="translate(196.722 39.923)" fill="#4EC0F2"/>
<defs><linearGradient id="paint0_linear" x2="1" gradientUnits="userSpaceOnUse" gradientTransform="translate(-0.00625673 15.9877) scale(33.7732 34.0246)"><stop stop-color="#4ED2F7"/><stop offset="0.3245" stop-color="#4EC0F2"/><stop offset="1" stop-color="#4EC0F2" stop-opacity="0.05"/></linearGradient><linearGradient id="paint1_linear" x2="1" gradientUnits="userSpaceOnUse" gradientTransform="translate(0.0109396 10.2529) scale(27.1607 27.3628)"><stop stop-color="#4ED2F7"/><stop offset="0.2819" stop-color="#4EC0F2"/><stop offset="1" stop-color="#4EC0F2" stop-opacity="0.1"/></linearGradient><linearGradient id="paint2_linear" x2="1" gradientUnits="userSpaceOnUse" gradientTransform="translate(0.0001375 15.9529) scale(33.7732 34.0246)"><stop stop-color="#4ED2F7"/><stop offset="0.2553" stop-color="#4EC0F2"/><stop offset="1" stop-color="#4EC0F2" stop-opacity="0.1"/></linearGradient><linearGradient id="paint3_linear" x2="1" gradientUnits="userSpaceOnUse" gradientTransform="translate(0.00498437 10.253) scale(27.1607 27.3628)"><stop stop-color="#4ED2F7"/><stop offset="0.2553" stop-color="#4EC0F2"/><stop offset="1" stop-color="#4EC0F2" stop-opacity="0.1"/></linearGradient></defs></svg>